STARTFONT 2.1
FONT -Adobe-Times-Medium-I-Normal--24-240-75-75-P-125-ISO8859-2
SIZE 24 75 75
FONTBOUNDINGBOX 30 29 -5 -6
COMMENT $XConsortium: timI24.bdf,v 1.14 95/01/26 18:07:01 gildea Exp $
COMMENT 
COMMENT +
COMMENT  Copyright 1984-1989, 1994 Adobe Systems Incorporated.
COMMENT  Copyright 1988, 1994 Digital Equipment Corporation.
COMMENT
COMMENT  Adobe is a trademark of Adobe Systems Incorporated which may be
COMMENT  registered in certain jurisdictions.
COMMENT  Permission to use these trademarks is hereby granted only in
COMMENT  association with the images described in this file.
COMMENT
COMMENT  Permission to use, copy, modify, distribute and sell this software
COMMENT  and its documentation for any purpose and without fee is hereby
COMMENT  granted, provided that the above copyright notices appear in all
COMMENT  copies and that both those copyright notices and this permission
COMMENT  notice appear in supporting documentation, and that the names of
COMMENT  Adobe Systems and Digital Equipment Corporation not be used in
COMMENT  advertising or publicity pertaining to distribution of the software
COMMENT  without specific, written prior permission.  Adobe Systems and
COMMENT  Digital Equipment Corporation make no representations about the
COMMENT  suitability of this software for any purpose.  It is provided "as
COMMENT  is" without express or implied warranty.
COMMENT -
COMMENT  
COMMENT  Translation to ISO8859-2 by Cub Soft;  Petr.Kolar@vslib.cz
COMMENT  
STARTPROPERTIES 28
FOUNDRY "Adobe"
FAMILY_NAME "Times"
WEIGHT_NAME "Medium"
SLANT "I"
SETWIDTH_NAME "Normal"
ADD_STYLE_NAME ""
PIXEL_SIZE 24
POINT_SIZE 240
RESOLUTION_X 75
RESOLUTION_Y 75
SPACING "P"
AVERAGE_WIDTH 125
CHARSET_REGISTRY "ISO8859"
CHARSET_ENCODING "2"
CAP_HEIGHT 17
X_HEIGHT 11
FONT_ASCENT 20
FONT_DESCENT 5
FACE_NAME "Times Italic"

STARTCHAR space
ENCODING 32
SWIDTH 250 0
DWIDTH 6 0
BBX 1 1 0 0
BITMAP
00
ENDCHAR
STARTCHAR exclam
ENCODING 33
SWIDTH 333 0
DWIDTH 8 0
BBX 7 17 1 0
BITMAP
06
06
0e
0c
0c
18
18
18
10
30
20
20
00
00
c0
c0
c0
ENDCHAR
STARTCHAR quotedbl
ENCODING 34
SWIDTH 420 0
DWIDTH 11 0
BBX 6 5 4 12
BITMAP
cc
cc
cc
88
88
ENDCHAR
STARTCHAR numbersign
ENCODING 35
SWIDTH 500 0
DWIDTH 13 0
BBX 13 17 0 0
BITMAP
0420
0420
0c60
0c60
0840
7ff8
18c0
18c0
1080
3180
3180
ffe0
2100
6300
6300
4200
c600
ENDCHAR
STARTCHAR dollar
ENCODING 36
SWIDTH 500 0
DWIDTH 12 0
BBX 11 20 0 -2
BITMAP
0080
0f80
19e0
3160
3320
3220
1a00
1e00
0f00
0780
0580
04c0
0cc0
88c0
88c0
c980
eb80
3e00
1000
1000
ENDCHAR
STARTCHAR percent
ENCODING 37
SWIDTH 833 0
DWIDTH 20 0
BBX 17 17 1 0
BITMAP
0e1800
33f800
611000
613000
c12000
c36000
c24000
c68f00
ec9980
79b080
013080
036080
026180
066100
0c6300
0c7600
183c00
ENDCHAR
STARTCHAR ampersand
ENCODING 38
SWIDTH 778 0
DWIDTH 19 0
BBX 16 17 1 0
BITMAP
00e0
01b0
0330
0330
0360
03c0
0380
0700
0f3e
3b0c
7198
e1b0
c1e0
c0c0
c0e0
61f3
3e3e
ENDCHAR
STARTCHAR apostrophe
ENCODING 39
SWIDTH 333 0
DWIDTH 7 0
BBX 4 6 2 11
BITMAP
70
70
30
20
60
c0
ENDCHAR
STARTCHAR parenleft
ENCODING 40
SWIDTH 333 0
DWIDTH 8 0
BBX 7 22 1 -5
BITMAP
02
04
0c
18
18
30
30
60
60
60
c0
c0
c0
c0
c0
c0
c0
40
60
60
20
20
ENDCHAR
STARTCHAR parenright
ENCODING 41
SWIDTH 333 0
DWIDTH 8 0
BBX 7 22 -1 -5
BITMAP
08
08
0c
0c
04
06
06
06
06
06
06
06
0c
0c
0c
18
18
30
30
60
40
80
ENDCHAR
STARTCHAR asterisk
ENCODING 42
SWIDTH 500 0
DWIDTH 13 0
BBX 9 10 1 7
BITMAP
1800
1800
c980
eb80
1c00
eb80
c980
0800
1800
1800
ENDCHAR
STARTCHAR plus
ENCODING 43
SWIDTH 675 0
DWIDTH 17 0
BBX 12 12 3 1
BITMAP
0600
0600
0600
0600
0600
fff0
fff0
0600
0600
0600
0600
0600
ENDCHAR
STARTCHAR comma
ENCODING 44
SWIDTH 250 0
DWIDTH 6 0
BBX 3 6 -1 -3
BITMAP
60
60
60
20
60
c0
ENDCHAR
STARTCHAR minus
ENCODING 45
SWIDTH 675 0
DWIDTH 17 0
BBX 13 2 2 6
BITMAP
fff8
fff8
ENDCHAR
STARTCHAR period
ENCODING 46
SWIDTH 250 0
DWIDTH 6 0
BBX 2 3 0 0
BITMAP
c0
c0
c0
ENDCHAR
STARTCHAR slash
ENCODING 47
SWIDTH 278 0
DWIDTH 7 0
BBX 7 17 0 0
BITMAP
06
06
04
0c
0c
08
18
18
10
30
30
20
60
60
40
c0
c0
ENDCHAR
STARTCHAR zero
ENCODING 48
SWIDTH 500 0
DWIDTH 12 0
BBX 12 17 0 0
BITMAP
03c0
0e60
1860
3830
3030
7030
7030
6070
e070
e070
c060
c0e0
c0c0
c1c0
c180
6700
3e00
ENDCHAR
STARTCHAR one
ENCODING 49
SWIDTH 500 0
DWIDTH 12 0
BBX 9 17 1 0
BITMAP
0380
1f80
0300
0300
0300
0700
0600
0600
0e00
0e00
0c00
0c00
1c00
1800
1800
3800
fe00
ENDCHAR
STARTCHAR two
ENCODING 50
SWIDTH 500 0
DWIDTH 12 0
BBX 11 17 0 0
BITMAP
0780
1fc0
30e0
3060
0060
0060
00e0
00c0
0180
0300
0600
0c00
1800
3020
6060
ffc0
ff80
ENDCHAR
STARTCHAR three
ENCODING 51
SWIDTH 500 0
DWIDTH 12 0
BBX 11 17 0 0
BITMAP
07c0
08e0
1060
0060
0040
00c0
0380
0f00
0380
01c0
00c0
00c0
00c0
0080
c180
e300
7e00
ENDCHAR
STARTCHAR four
ENCODING 52
SWIDTH 500 0
DWIDTH 12 0
BBX 12 17 0 0
BITMAP
0030
0070
00f0
01e0
0360
0660
0cc0
18c0
31c0
6180
c180
ffe0
ffe0
0300
0300
0600
0600
ENDCHAR
STARTCHAR five
ENCODING 53
SWIDTH 500 0
DWIDTH 12 0
BBX 12 17 0 0
BITMAP
07f0
0fe0
0800
1800
1c00
3f00
0f80
0380
01c0
00c0
00c0
00c0
00c0
0180
c180
e700
fc00
ENDCHAR
STARTCHAR six
ENCODING 54
SWIDTH 500 0
DWIDTH 12 0
BBX 11 17 1 0
BITMAP
00e0
01c0
0700
0c00
1800
3000
7f00
7180
e1c0
c0c0
c0c0
c0c0
c1c0
c180
e380
7700
3c00
ENDCHAR
STARTCHAR seven
ENCODING 55
SWIDTH 500 0
DWIDTH 12 0
BBX 12 17 1 0
BITMAP
7ff0
7fe0
c060
80c0
00c0
0180
0300
0300
0600
0600
0c00
1800
1800
3000
6000
e000
c000
ENDCHAR
STARTCHAR eight
ENCODING 56
SWIDTH 500 0
DWIDTH 12 0
BBX 12 17 0 0
BITMAP
07c0
0c60
1830
1830
1830
1c60
0ec0
0700
0b80
31c0
60e0
c060
c060
c060
c0c0
61c0
3f00
ENDCHAR
STARTCHAR nine
ENCODING 57
SWIDTH 500 0
DWIDTH 12 0
BBX 12 17 0 0
BITMAP
07c0
1ce0
3870
3030
7030
6030
6030
6070
7060
39e0
1ec0
01c0
0380
0700
0c00
3800
e000
ENDCHAR
STARTCHAR colon
ENCODING 58
SWIDTH 333 0
DWIDTH 8 0
BBX 5 11 1 0
BITMAP
18
18
18
00
00
00
00
00
c0
c0
c0
ENDCHAR
STARTCHAR semicolon
ENCODING 59
SWIDTH 333 0
DWIDTH 8 0
BBX 5 14 1 -3
BITMAP
18
18
18
00
00
00
00
00
60
60
60
20
60
c0
ENDCHAR
STARTCHAR less
ENCODING 60
SWIDTH 675 0
DWIDTH 17 0
BBX 14 12 1 1
BITMAP
001c
007c
03e0
0f80
3c00
f000
f000
3c00
0f80
03e0
00fc
001c
ENDCHAR
STARTCHAR equal
ENCODING 61
SWIDTH 675 0
DWIDTH 17 0
BBX 13 6 2 4
BITMAP
fff8
fff8
0000
0000
fff8
fff8
ENDCHAR
STARTCHAR greater
ENCODING 62
SWIDTH 675 0
DWIDTH 17 0
BBX 14 12 2 1
BITMAP
e000
fc00
1f00
07c0
00f0
003c
003c
00f0
07c0
1f00
f800
e000
ENDCHAR
STARTCHAR question
ENCODING 63
SWIDTH 500 0
DWIDTH 12 0
BBX 9 17 3 0
BITMAP
3e00
3380
6180
6180
0180
0300
0700
0e00
1800
3000
3000
6000
4000
0000
c000
c000
c000
ENDCHAR
STARTCHAR at
ENCODING 64
SWIDTH 920 0
DWIDTH 23 0
BBX 21 21 1 -5
BITMAP
007f00
03c1c0
060060
1c0030
183d18
307718
70c308
618308
e30308
e30608
c70618
c60e10
c60c30
c61c60
c774c0
e3e380
600000
300000
1c0000
0f0180
01fe00
ENDCHAR
STARTCHAR A
ENCODING 65
SWIDTH 611 0
DWIDTH 15 0
BBX 16 18 -2 0
BITMAP
000c
001c
001c
002c
006c
004c
00cc
018c
010c
030c
060c
07fc
0c0c
080c
180c
300c
700c
f83f
ENDCHAR
STARTCHAR B
ENCODING 66
SWIDTH 611 0
DWIDTH 15 0
BBX 15 17 -1 0
BITMAP
0ff0
031c
030c
070e
060e
060c
0e0c
0c38
0fe0
0c38
1c18
181c
181c
383c
3038
30f0
ffc0
ENDCHAR
STARTCHAR C
ENCODING 67
SWIDTH 667 0
DWIDTH 16 0
BBX 16 17 1 0
BITMAP
00f9
070f
0606
1c02
1802
3000
3000
7000
6000
e000
e000
e000
e000
600c
7018
3870
0fc0
ENDCHAR
STARTCHAR D
ENCODING 68
SWIDTH 722 0
DWIDTH 18 0
BBX 18 17 -1 0
BITMAP
0ffc00
030f00
030380
070180
0601c0
0601c0
0e01c0
0c0180
0c0180
0c0380
1c0300
180700
180600
380e00
301800
307000
ffc000
ENDCHAR
STARTCHAR E
ENCODING 69
SWIDTH 611 0
DWIDTH 15 0
BBX 16 17 -1 0
BITMAP
0fff
0303
0301
0701
0600
0608
0e08
0c18
0ff0
0c30
1c10
1810
1800
3802
3006
300c
fffc
ENDCHAR
STARTCHAR F
ENCODING 70
SWIDTH 611 0
DWIDTH 15 0
BBX 16 17 -1 0
BITMAP
0fff
0303
0301
0701
0600
0608
0e08
0c18
0ff0
0c30
1c10
1810
1800
3800
3000
3000
fe00
ENDCHAR
STARTCHAR G
ENCODING 71
SWIDTH 722 0
DWIDTH 18 0
BBX 17 17 1 0
BITMAP
00f900
078f00
060600
1c0200
180200
380000
300000
700000
600000
603f80
e00600
e00600
e00c00
600c00
700c00
383c00
0fc000
ENDCHAR
STARTCHAR H
ENCODING 72
SWIDTH 722 0
DWIDTH 18 0
BBX 20 17 -1 0
BITMAP
0fc3f0
0300c0
0300c0
0701c0
060180
060180
0e0380
0c0300
0fff00
0c0300
1c0700
180600
180600
380e00
300c00
300c00
fc3f00
ENDCHAR
STARTCHAR I
ENCODING 73
SWIDTH 333 0
DWIDTH 8 0
BBX 10 17 -1 0
BITMAP
0fc0
0300
0300
0700
0600
0600
0e00
0c00
0c00
0c00
1c00
1800
1800
3800
3000
3000
fc00
ENDCHAR
STARTCHAR J
ENCODING 74
SWIDTH 444 0
DWIDTH 11 0
BBX 12 17 -1 0
BITMAP
03f0
00c0
00c0
01c0
0180
0180
0380
0300
0300
0300
0700
0600
0600
0600
cc00
cc00
7800
ENDCHAR
STARTCHAR K
ENCODING 75
SWIDTH 667 0
DWIDTH 16 0
BBX 18 17 -1 0
BITMAP
0fcfc0
030300
030600
060c00
063000
066000
0ec000
0f8000
0dc000
0cc000
1ce000
186000
187000
383000
303800
301c00
fcff00
ENDCHAR
STARTCHAR L
ENCODING 76
SWIDTH 556 0
DWIDTH 14 0
BBX 14 17 -1 0
BITMAP
0fc0
0300
0300
0700
0600
0600
0e00
0c00
0c00
0c00
1c00
1800
1800
3804
300c
3018
fff8
ENDCHAR
STARTCHAR M
ENCODING 77
SWIDTH 833 0
DWIDTH 20 0
BBX 21 17 -1 0
BITMAP
1f0078
0700e0
0700e0
0701e0
0f03e0
0b02c0
0b04c0
0b0cc0
1b89c0
199980
119180
31a180
31e380
21c300
218300
618700
f91fc0
ENDCHAR
STARTCHAR N
ENCODING 78
SWIDTH 667 0
DWIDTH 16 0
BBX 19 17 -1 0
BITMAP
1f03e0
0700c0
070180
058180
0d8100
0d8100
08c300
08c200
18e200
186600
107600
303400
303400
203c00
201c00
601800
f80800
ENDCHAR
STARTCHAR O
ENCODING 79
SWIDTH 722 0
DWIDTH 18 0
BBX 16 17 1 0
BITMAP
00f0
079c
060e
1c06
1807
3807
3007
7006
6006
600e
e00c
e01c
e018
6038
7060
39e0
0f80
ENDCHAR
STARTCHAR P
ENCODING 80
SWIDTH 611 0
DWIDTH 15 0
BBX 16 17 -1 0
BITMAP
0ff8
030e
0306
0707
0607
0607
0e0e
0c3c
0ff0
0c00
1c00
1800
1800
3800
3000
3000
fc00
ENDCHAR
STARTCHAR Q
ENCODING 81
SWIDTH 722 0
DWIDTH 18 0
BBX 16 22 1 -5
BITMAP
00f0
079c
060e
1c06
1807
3807
3007
7006
6006
600e
e00c
e01c
e018
6038
7060
39e0
1f80
0c00
1801
3c06
fffc
c3f0
ENDCHAR
STARTCHAR R
ENCODING 82
SWIDTH 611 0
DWIDTH 15 0
BBX 15 17 -1 0
BITMAP
0ff0
031c
030c
060e
060e
060c
0c1c
0c38
0fe0
0980
18c0
18c0
1860
3070
3030
3038
fc1e
ENDCHAR
STARTCHAR S
ENCODING 83
SWIDTH 500 0
DWIDTH 12 0
BBX 12 17 0 0
BITMAP
07d0
0c70
1830
1820
1820
1c00
0e00
0f00
0780
0380
01c0
01c0
40c0
40c0
c0c0
e180
bf00
ENDCHAR
STARTCHAR T
ENCODING 84
SWIDTH 556 0
DWIDTH 14 0
BBX 14 17 2 0
BITMAP
fffc
c30c
8308
8708
0600
0600
0e00
0c00
0c00
0c00
1c00
1800
1800
3800
3000
3000
fc00
ENDCHAR
STARTCHAR U
ENCODING 85
SWIDTH 722 0
DWIDTH 18 0
BBX 17 17 2 0
BITMAP
7e1f80
180600
180600
380400
300400
300c00
700c00
600800
601800
601800
c01000
c01000
c03000
c02000
e06000
79c000
3f0000
ENDCHAR
STARTCHAR V
ENCODING 86
SWIDTH 611 0
DWIDTH 15 0
BBX 16 17 1 0
BITMAP
fc1f
7006
300c
3008
3018
3810
1830
1860
1840
18c0
1c80
0d80
0d00
0e00
0e00
0c00
0800
ENDCHAR
STARTCHAR W
ENCODING 87
SWIDTH 833 0
DWIDTH 21 0
BBX 21 17 1 0
BITMAP
f9f8f8
306060
306040
3060c0
30e080
30e180
31e100
316300
336200
326600
366400
3c6c00
386800
387000
307000
306000
204000
ENDCHAR
STARTCHAR X
ENCODING 88
SWIDTH 611 0
DWIDTH 15 0
BBX 18 17 -1 0
BITMAP
3f8fc0
0e0700
060600
070c00
031800
033000
036000
01c000
01c000
01c000
036000
066000
0c6000
183000
303000
703800
f8fe00
ENDCHAR
STARTCHAR Y
ENCODING 89
SWIDTH 556 0
DWIDTH 14 0
BBX 14 17 2 0
BITMAP
fc7c
7038
3030
3060
18c0
1980
1b00
0e00
0c00
0c00
1800
1800
1800
3000
3000
3000
fc00
ENDCHAR
STARTCHAR Z
ENCODING 90
SWIDTH 556 0
DWIDTH 14 0
BBX 16 17 -1 0
BITMAP
1fff
180e
300c
2018
0038
0070
00e0
00c0
0180
0300
0700
0e00
0c02
1806
380c
703c
fff8
ENDCHAR
STARTCHAR bracketleft
ENCODING 91
SWIDTH 389 0
DWIDTH 10 0
BBX 9 21 1 -4
BITMAP
0780
0600
0600
0c00
0c00
0c00
1800
1800
1800
1800
3000
3000
3000
3000
6000
6000
6000
c000
c000
c000
f000
ENDCHAR
STARTCHAR backslash
ENCODING 92
SWIDTH 278 0
DWIDTH 7 0
BBX 7 17 0 0
BITMAP
c0
c0
40
60
60
20
30
30
10
18
18
08
0c
0c
04
06
06
ENDCHAR
STARTCHAR bracketright
ENCODING 93
SWIDTH 389 0
DWIDTH 10 0
BBX 9 21 0 -4
BITMAP
0780
0180
0180
0180
0300
0300
0300
0600
0600
0600
0600
0c00
0c00
0c00
0c00
1800
1800
1800
3000
3000
f000
ENDCHAR
STARTCHAR asciicircum
ENCODING 94
SWIDTH 422 0
DWIDTH 11 0
BBX 10 10 1 7
BITMAP
0600
0600
0f00
1b00
1980
3180
6180
60c0
c0c0
c0c0
ENDCHAR
STARTCHAR underscore
ENCODING 95
SWIDTH 500 0
DWIDTH 13 0
BBX 13 2 0 -5
BITMAP
fff8
fff8
ENDCHAR
STARTCHAR grave
ENCODING 96
SWIDTH 333 0
DWIDTH 8 0
BBX 5 5 4 12
BITMAP
c0
e0
70
30
08
ENDCHAR
STARTCHAR a
ENCODING 97
SWIDTH 500 0
DWIDTH 13 0
BBX 12 11 0 0
BITMAP
03b0
0e70
1860
3060
60c0
60c0
c0c0
c380
c580
f9a0
71c0
ENDCHAR
STARTCHAR b
ENCODING 98
SWIDTH 500 0
DWIDTH 12 0
BBX 11 17 0 0
BITMAP
1c00
0c00
0c00
1800
1800
1800
31c0
33e0
3460
7860
6060
60c0
40c0
c180
c300
ce00
f800
ENDCHAR
STARTCHAR c
ENCODING 99
SWIDTH 444 0
DWIDTH 11 0
BBX 10 11 0 0
BITMAP
0780
1cc0
30c0
7000
6000
e000
c000
c000
c180
e700
7c00
ENDCHAR
STARTCHAR d
ENCODING 100
SWIDTH 500 0
DWIDTH 13 0
BBX 13 17 0 0
BITMAP
0038
0018
0018
0038
0030
0030
03b0
0e60
1860
3060
6040
60c0
c0c0
c3c0
c580
f9a0
71c0
ENDCHAR
STARTCHAR e
ENCODING 101
SWIDTH 444 0
DWIDTH 10 0
BBX 9 11 0 0
BITMAP
0700
1d80
3180
6300
6600
f800
c000
c100
c300
e600
7c00
ENDCHAR
STARTCHAR f
ENCODING 102
SWIDTH 278 0
DWIDTH 7 0
BBX 15 22 -5 -5
BITMAP
001c
0066
0066
00c0
00c0
00c0
07f8
0180
0180
0180
0380
0300
0300
0300
0700
0600
0600
0600
0c00
cc00
cc00
7000
ENDCHAR
STARTCHAR g
ENCODING 103
SWIDTH 500 0
DWIDTH 12 0
BBX 12 17 -1 -6
BITMAP
07f0
1cc0
1860
3060
30e0
30c0
1980
0e00
1800
1c00
3f00
67c0
c1c0
80c0
c0c0
e380
3e00
ENDCHAR
STARTCHAR h
ENCODING 104
SWIDTH 500 0
DWIDTH 13 0
BBX 11 17 0 0
BITMAP
1c00
0c00
0c00
1800
1800
1800
30c0
33e0
3460
7860
7060
70c0
60c0
e0c0
c180
c1a0
c1c0
ENDCHAR
STARTCHAR i
ENCODING 105
SWIDTH 278 0
DWIDTH 7 0
BBX 6 16 0 0
BITMAP
0c
0c
00
00
00
38
18
18
30
30
70
60
60
c0
d0
60
ENDCHAR
STARTCHAR j
ENCODING 106
SWIDTH 278 0
DWIDTH 6 0
BBX 10 21 -4 -5
BITMAP
00c0
00c0
0000
0000
0000
0380
0180
0180
0300
0300
0300
0700
0600
0600
0600
0c00
0c00
0c00
c800
d800
7000
ENDCHAR
STARTCHAR k
ENCODING 107
SWIDTH 444 0
DWIDTH 11 0
BBX 11 17 0 0
BITMAP
1c00
0c00
0c00
1800
1800
1800
33c0
3180
3200
6400
7c00
6c00
6600
c600
c320
c3c0
c180
ENDCHAR
STARTCHAR l
ENCODING 108
SWIDTH 278 0
DWIDTH 6 0
BBX 6 17 0 0
BITMAP
1c
0c
0c
18
18
18
30
30
30
70
60
60
60
c0
c8
d0
60
ENDCHAR
STARTCHAR m
ENCODING 109
SWIDTH 722 0
DWIDTH 20 0
BBX 18 11 0 0
BITMAP
38c380
1befc0
1c70c0
3860c0
3060c0
70c180
60c180
60c180
c18300
c18340
c18380
ENDCHAR
STARTCHAR n
ENCODING 110
SWIDTH 500 0
DWIDTH 13 0
BBX 11 11 0 0
BITMAP
38c0
1be0
1c60
3860
3060
70c0
60c0
60c0
c180
c1a0
c1c0
ENDCHAR
STARTCHAR o
ENCODING 111
SWIDTH 500 0
DWIDTH 12 0
BBX 11 11 0 0
BITMAP
0780
1cc0
3860
7060
6060
e0e0
c0c0
c1c0
c180
6700
3c00
ENDCHAR
STARTCHAR p
ENCODING 112
SWIDTH 500 0
DWIDTH 12 0
BBX 14 16 -3 -5
BITMAP
0e38
067c
068c
0f0c
0c0c
0c18
1c18
1830
1860
19c0
1f00
3000
3000
3000
6000
f800
ENDCHAR
STARTCHAR q
ENCODING 113
SWIDTH 500 0
DWIDTH 12 0
BBX 12 16 0 -5
BITMAP
03b0
0e70
1860
3060
60c0
60c0
c0c0
c380
c580
f980
7180
0100
0300
0300
0300
0f80
ENDCHAR
STARTCHAR r
ENCODING 114
SWIDTH 389 0
DWIDTH 9 0
BBX 9 11 0 0
BITMAP
3980
1b80
1d80
3800
3000
7000
6000
6000
c000
c000
c000
ENDCHAR
STARTCHAR s
ENCODING 115
SWIDTH 389 0
DWIDTH 9 0
BBX 8 11 0 0
BITMAP
1f
33
31
38
38
1c
0e
86
86
cc
f8
ENDCHAR
STARTCHAR t
ENCODING 116
SWIDTH 278 0
DWIDTH 7 0
BBX 7 14 0 0
BITMAP
08
18
38
7e
30
30
70
60
60
60
e0
c4
d8
60
ENDCHAR
STARTCHAR u
ENCODING 117
SWIDTH 500 0
DWIDTH 12 0
BBX 11 11 0 0
BITMAP
7860
3060
3060
60c0
60c0
61c0
c180
c380
c700
fb00
6380
ENDCHAR
STARTCHAR v
ENCODING 118
SWIDTH 444 0
DWIDTH 12 0
BBX 11 11 0 0
BITMAP
f0e0
3060
3060
30c0
3080
1980
1b00
1e00
1c00
1800
1000
ENDCHAR
STARTCHAR w
ENCODING 119
SWIDTH 667 0
DWIDTH 17 0
BBX 16 11 0 0
BITMAP
f0c7
30c3
30c3
30c2
31c6
19c4
1ac8
1ed8
1cf0
18e0
10c0
ENDCHAR
STARTCHAR x
ENCODING 120
SWIDTH 444 0
DWIDTH 11 0
BBX 11 11 -1 0
BITMAP
1860
3ce0
0c80
0700
0600
0600
0f00
1b00
3320
e1c0
c180
ENDCHAR
STARTCHAR y
ENCODING 121
SWIDTH 444 0
DWIDTH 11 0
BBX 12 16 -1 -5
BITMAP
7870
1830
1830
1860
0c40
0cc0
0c80
0d80
0700
0600
0600
0c00
0800
1800
d000
e000
ENDCHAR
STARTCHAR z
ENCODING 122
SWIDTH 389 0
DWIDTH 10 0
BBX 9 11 0 0
BITMAP
3f80
7f80
4180
0300
0600
0c00
1800
3000
6100
ff00
fe00
ENDCHAR
STARTCHAR braceleft
ENCODING 123
SWIDTH 400 0
DWIDTH 10 0
BBX 9 22 1 -5
BITMAP
0180
0200
0400
0c00
0c00
0c00
0800
1800
1800
3000
e000
7000
3000
3000
3000
2000
2000
6000
6000
6000
2000
1800
ENDCHAR
STARTCHAR bar
ENCODING 124
SWIDTH 275 0
DWIDTH 6 0
BBX 6 22 0 -5
BITMAP
04
04
04
0c
08
08
08
18
10
10
10
30
20
20
60
40
40
40
c0
80
80
80
ENDCHAR
STARTCHAR braceright
ENCODING 125
SWIDTH 400 0
DWIDTH 10 0
BBX 9 22 -1 -5
BITMAP
0c00
0200
0300
0300
0300
0200
0200
0600
0600
0600
0700
0380
0600
0c00
0c00
0800
1800
1800
1800
1000
2000
c000
ENDCHAR
STARTCHAR asciitilde
ENCODING 126
SWIDTH 541 0
DWIDTH 14 0
BBX 10 4 2 4
BITMAP
3840
7cc0
cf80
8700
ENDCHAR
STARTCHAR nobreakspace
ENCODING 160
SWIDTH 250 0
DWIDTH 6 0
BBX 1 1 0 0
BITMAP
00
ENDCHAR
STARTCHAR Aogonek
ENCODING 161
SWIDTH 611 0
DWIDTH 15 0
BBX 16 23 -2 -5
BITMAP
000c
001c
001c
002c
006c
004c
00cc
018c
010c
030c
060c
07fc
0c0c
080c
180c
300c
700c
f83f
0300
0600
0600
07e0
0380
ENDCHAR
STARTCHAR breve
ENCODING 162
SWIDTH 333 0
DWIDTH 8 0
BBX 7 4 3 12
BITMAP
82
c6
fc
78
ENDCHAR
STARTCHAR Lstroke
ENCODING 163
SWIDTH 556 0
DWIDTH 14 0
BBX 14 17 -1 0
BITMAP
0fc0
0300
0300
0700
0600
06c0
0f00
3c00
4c00
0c00
1c00
1800
1800
3804
300c
3018
fff8
ENDCHAR
STARTCHAR currency
ENCODING 164
SWIDTH 500 0
DWIDTH 13 0
BBX 12 12 0 3
BITMAP
c030
ef70
7fe0
39c0
70e0
6060
6060
70e0
39c0
7fe0
ef70
c030
ENDCHAR
STARTCHAR Lcaron
ENCODING 165
SWIDTH 600 0
DWIDTH 15 0
BBX 15 19 -1 0
BITMAP
000e
000e
0fc6
0304
030c
0718
0600
0600
0e00
0c00
0c00
0c00
1c00
1800
1800
3804
300c
3018
fff8
ENDCHAR
STARTCHAR Sacute
ENCODING 166
SWIDTH 500 0
DWIDTH 12 0
BBX 12 23 0 0
BITMAP
0030
0070
00e0
0180
0100
0000
07d0
0c70
1830
1820
1820
1c00
0e00
0f00
0780
0380
01c0
01c0
40c0
40c0
c0c0
e180
bf00
ENDCHAR
STARTCHAR section
ENCODING 167
SWIDTH 500 0
DWIDTH 13 0
BBX 11 21 1 -3
BITMAP
03c0
0660
0c60
0860
0c00
0c00
0e00
3f00
2780
6380
61c0
70c0
38c0
38c0
1f80
0e00
0600
c600
c600
cc00
7800
ENDCHAR
STARTCHAR diaeresis
ENCODING 168
SWIDTH 333 0
DWIDTH 8 0
BBX 6 2 2 13
BITMAP
cc
cc
ENDCHAR
STARTCHAR Scaron
ENCODING 169
SWIDTH 500 0
DWIDTH 12 0
BBX 12 22 0 0
BITMAP
0410
0660
03c0
0380
0000
07d0
0c70
1830
1820
1820
1c00
0e00
0f00
0780
0380
01c0
01c0
40c0
40c0
c0c0
e180
bf00
ENDCHAR
STARTCHAR Scedilla
ENCODING 170
SWIDTH 500 0
DWIDTH 12 0
BBX 12 22 0 -5
BITMAP
07d0
0c70
1830
1820
1820
1c00
0e00
0f00
0780
0380
01c0
01c0
40c0
40c0
c0c0
e180
bf00
0400
0700
0180
1180
0f00
ENDCHAR
STARTCHAR Tcaron
ENCODING 171
SWIDTH 556 0
DWIDTH 14 0
BBX 14 22 2 0
BITMAP
0410
0660
03c0
0380
0000
fffc
c30c
8308
8708
0600
0600
0e00
0c00
0c00
0c00
1c00
1800
1800
3800
3000
3000
fc00
ENDCHAR
STARTCHAR Zacute
ENCODING 172
SWIDTH 556 0
DWIDTH 14 0
BBX 16 23 -1 0
BITMAP
000c
001c
0038
0060
0040
0000
1fff
180e
300c
2018
0038
0070
00e0
00c0
0180
0300
0700
0e00
0c02
1806
380c
703c
fff8
ENDCHAR
STARTCHAR hyphen
ENCODING 173
SWIDTH 333 0
DWIDTH 8 0
BBX 6 2 1 5
BITMAP
fc
fc
ENDCHAR
STARTCHAR Zcaron
ENCODING 174
SWIDTH 556 0
DWIDTH 14 0
BBX 16 22 -1 0
BITMAP
0104
0198
00f0
00e0
0000
1fff
180e
300c
2018
0038
0070
00e0
00c0
0180
0300
0700
0e00
0c02
1806
380c
703c
fff8
ENDCHAR
STARTCHAR Zabovedot
ENCODING 175
SWIDTH 556 0
DWIDTH 14 0
BBX 16 20 -1 0
BITMAP
0060
0060
0000
1fff
180e
300c
2018
0038
0070
00e0
00c0
0180
0300
0700
0e00
0c02
1806
380c
703c
fff8
ENDCHAR
STARTCHAR degree
ENCODING 176
SWIDTH 400 0
DWIDTH 9 0
BBX 8 7 1 10
BITMAP
3c
66
c3
c3
c3
66
3c
ENDCHAR
STARTCHAR aogonek
ENCODING 177
SWIDTH 500 0
DWIDTH 13 0
BBX 12 16 0 -5
BITMAP
03b0
0e70
1860
3060
60c0
60c0
c0c0
c380
c580
f9a0
71c0
0c00
1800
1800
1f80
0e00
ENDCHAR
STARTCHAR ogonek
ENCODING 178
SWIDTH 333 0
DWIDTH 8 0
BBX 6 5 1 -5
BITMAP
60
c0
c0
fc
70
ENDCHAR
STARTCHAR lstroke
ENCODING 179
SWIDTH 278 0
DWIDTH 6 0
BBX 8 17 -1 0
BITMAP
0e
06
06
0c
0c
0d
1e
78
98
38
30
30
30
70
64
68
30
ENDCHAR
STARTCHAR acute
ENCODING 180
SWIDTH 333 0
DWIDTH 8 0
BBX 5 5 4 12
BITMAP
18
38
70
c0
80
ENDCHAR
STARTCHAR lcaron
ENCODING 181
SWIDTH 440 0
DWIDTH 11 0
BBX 11 19 0 0
BITMAP
00e0
00e0
1c60
0c40
0cc0
1980
1800
1800
3000
3000
3000
7000
6000
6000
6000
c000
c800
d000
6000
ENDCHAR
STARTCHAR sacute
ENCODING 182
SWIDTH 389 0
DWIDTH 9 0
BBX 10 17 0 0
BITMAP
00c0
01c0
0380
0600
0400
0000
1f00
3300
3100
3800
3800
1c00
0e00
8600
8600
cc00
f800
ENDCHAR
STARTCHAR caron
ENCODING 183
SWIDTH 333 0
DWIDTH 8 0
BBX 7 4 4 12
BITMAP
82
cc
78
70
ENDCHAR
STARTCHAR cedilla
ENCODING 184
SWIDTH 333 0
DWIDTH 8 0
BBX 6 5 0 -5
BITMAP
20
38
0c
8c
78
ENDCHAR
STARTCHAR scaron
ENCODING 185
SWIDTH 389 0
DWIDTH 9 0
BBX 10 16 0 0
BITMAP
1040
1980
0f00
0e00
0000
1f00
3300
3100
3800
3800
1c00
0e00
8600
8600
cc00
f800
ENDCHAR
STARTCHAR scedilla
ENCODING 186
SWIDTH 389 0
DWIDTH 9 0
BBX 8 16 0 -5
BITMAP
1f
33
31
38
38
1c
0e
86
86
cc
f8
10
1c
06
46
3c
ENDCHAR
STARTCHAR tcaron
ENCODING 187
SWIDTH 400 0
DWIDTH 10 0
BBX 10 18 0 0
BITMAP
01c0
01c0
00c0
0080
0980
1b00
3800
7e00
3000
3000
7000
6000
6000
6000
e000
c400
d800
6000
ENDCHAR
STARTCHAR zacute
ENCODING 188
SWIDTH 389 0
DWIDTH 10 0
BBX 10 17 0 0
BITMAP
00c0
01c0
0380
0600
0400
0000
3f80
7f80
4180
0300
0600
0c00
1800
3000
6100
ff00
fe00
ENDCHAR
STARTCHAR doubleacute
ENCODING 189
SWIDTH 333 0
DWIDTH 8 0
BBX 6 6 2 12
BITMAP
6c
6c
48
d8
90
90
ENDCHAR
STARTCHAR zcaron
ENCODING 190
SWIDTH 389 0
DWIDTH 10 0
BBX 10 16 0 0
BITMAP
1040
1980
0f00
0e00
0000
3f80
7f80
4180
0300
0600
0c00
1800
3000
6100
ff00
fe00
ENDCHAR
STARTCHAR zabovedot
ENCODING 191
SWIDTH 389 0
DWIDTH 10 0
BBX 9 14 0 0
BITMAP
0600
0600
0000
3f80
7f80
4180
0300
0600
0c00
1800
3000
6100
ff00
fe00
ENDCHAR
STARTCHAR Racute
ENCODING 192
SWIDTH 611 0
DWIDTH 15 0
BBX 15 23 -1 0
BITMAP
000c
001c
0038
0060
0040
0000
0ff0
031c
030c
060e
060e
060c
0c1c
0c38
0fe0
0980
18c0
18c0
1860
3070
3030
3038
fc1e
ENDCHAR
STARTCHAR Aacute
ENCODING 193
SWIDTH 611 0
DWIDTH 15 0
BBX 16 22 -2 0
BITMAP
0003
0007
000e
0018
0000
001c
001c
002c
006c
004c
00cc
018c
010c
030c
060c
07fc
0c0c
080c
180c
300c
700c
f83f
ENDCHAR
STARTCHAR Acircumflex
ENCODING 194
SWIDTH 611 0
DWIDTH 15 0
BBX 16 22 -2 0
BITMAP
000e
001e
0033
0041
0000
001c
001c
002c
006c
004c
00cc
018c
010c
030c
060c
07fc
0c0c
080c
180c
300c
700c
f83f
ENDCHAR
STARTCHAR Abreve
ENCODING 195
SWIDTH 611 0
DWIDTH 15 0
BBX 17 23 -2 0
BITMAP
002080
003180
003f00
001e00
000000
000c00
001c00
001c00
002c00
006c00
004c00
00cc00
018c00
010c00
030c00
060c00
07fc00
0c0c00
080c00
180c00
300c00
700c00
f83f00
ENDCHAR
STARTCHAR Adiaeresis
ENCODING 196
SWIDTH 611 0
DWIDTH 15 0
BBX 17 21 -2 0
BITMAP
003180
003180
000000
000c00
001c00
001c00
002c00
006c00
004c00
00cc00
018c00
010c00
030c00
060c00
07fc00
0c0c00
080c00
180c00
300c00
700c00
f83f00
ENDCHAR
STARTCHAR Lacute
ENCODING 197
SWIDTH 556 0
DWIDTH 14 0
BBX 14 23 -1 0
BITMAP
0030
0070
00e0
0180
0100
0000
0fc0
0300
0300
0700
0600
0600
0e00
0c00
0c00
0c00
1c00
1800
1800
3804
300c
3018
fff8
ENDCHAR
STARTCHAR Cacute
ENCODING 198
SWIDTH 667 0
DWIDTH 16 0
BBX 16 23 1 0
BITMAP
0006
000e
001c
0030
0020
0000
00f9
070f
0606
1c02
1802
3000
3000
7000
6000
e000
e000
e000
e000
600c
7018
3870
0fc0
ENDCHAR
STARTCHAR Ccedilla
ENCODING 199
SWIDTH 667 0
DWIDTH 16 0
BBX 16 22 1 -5
BITMAP
00f9
070f
0606
1c02
1802
3000
3000
7000
6000
6000
e000
e000
e000
600c
7018
3870
0fc0
0400
0700
0180
1180
0f00
ENDCHAR
STARTCHAR Ccaron
ENCODING 200
SWIDTH 667 0
DWIDTH 16 0
BBX 16 22 1 0
BITMAP
0082
00cc
0078
0070
0000
00f9
070f
0606
1c02
1802
3000
3000
7000
6000
e000
e000
e000
e000
600c
7018
3870
0fc0
ENDCHAR
STARTCHAR Eacute
ENCODING 201
SWIDTH 611 0
DWIDTH 15 0
BBX 16 22 -1 0
BITMAP
000c
001c
0038
0060
0000
0fff
0303
0301
0701
0600
0608
0e08
0c18
0ff0
0c30
1c10
1810
1800
3802
3006
300c
fffc
ENDCHAR
STARTCHAR Eogonek
ENCODING 202
SWIDTH 611 0
DWIDTH 15 0
BBX 16 22 -1 -5
BITMAP
0fff
0303
0301
0701
0600
0608
0e08
0c18
0ff0
0c30
1c10
1810
1800
3802
3006
300c
fffc
0300
0600
0600
07e0
0380
ENDCHAR
STARTCHAR Ediaeresis
ENCODING 203
SWIDTH 611 0
DWIDTH 15 0
BBX 16 21 -1 0
BITMAP
00c6
00c6
0000
0000
0fff
0303
0301
0701
0600
0608
0e08
0c18
0ff0
0c30
1c10
1810
1800
3802
3006
300c
fffc
ENDCHAR
STARTCHAR Ecaron
ENCODING 204
SWIDTH 611 0
DWIDTH 15 0
BBX 16 22 -1 0
BITMAP
0082
00cc
0078
0070
0000
0fff
0303
0301
0701
0600
0608
0e08
0c18
0ff0
0c30
1c10
1810
1800
3802
3006
300c
fffc
ENDCHAR
STARTCHAR Iacute
ENCODING 205
SWIDTH 333 0
DWIDTH 8 0
BBX 11 22 -1 0
BITMAP
0060
00e0
01c0
0300
0000
0fc0
0300
0300
0700
0600
0600
0e00
0c00
0c00
0c00
1c00
1800
1800
3800
3000
3000
fc00
ENDCHAR
STARTCHAR Icircumflex
ENCODING 206
SWIDTH 333 0
DWIDTH 8 0
BBX 11 22 -1 0
BITMAP
0180
03c0
0660
0820
0000
0fc0
0300
0300
0700
0600
0600
0e00
0c00
0c00
0c00
1c00
1800
1800
3800
3000
3000
fc00
ENDCHAR
STARTCHAR Dcaron
ENCODING 207
SWIDTH 722 0
DWIDTH 18 0
BBX 18 22 -1 0
BITMAP
008200
00cc00
007800
007000
000000
0ffc00
030f00
030380
070180
0601c0
0601c0
0e01c0
0c0180
0c0180
0c0380
1c0300
180700
180600
380e00
301800
307000
ffc000
ENDCHAR
STARTCHAR Dstroke
ENCODING 208
SWIDTH 722 0
DWIDTH 18 0
BBX 18 17 -1 0
BITMAP
0ffc00
030f00
030380
070180
0601c0
0601c0
0e01c0
0c0180
7f8180
0c0380
1c0300
180700
180600
380e00
301800
307000
ffc000
ENDCHAR
STARTCHAR Nacute
ENCODING 209
SWIDTH 667 0
DWIDTH 16 0
BBX 19 23 -1 0
BITMAP
000300
000700
000e00
001800
001000
000000
1f03e0
0700c0
070180
058180
0d8100
0d8100
08c300
08c200
18e200
186600
107600
303400
303400
203c00
201c00
601800
f80800
ENDCHAR
STARTCHAR Ncaron
ENCODING 210
SWIDTH 667 0
DWIDTH 16 0
BBX 19 22 -1 0
BITMAP
004100
006600
003c00
003800
000000
1f03e0
0700c0
070180
058180
0d8100
0d8100
08c300
08c200
18e200
186600
107600
303400
303400
203c00
201c00
601800
f80800
ENDCHAR
STARTCHAR Oacute
ENCODING 211
SWIDTH 722 0
DWIDTH 18 0
BBX 16 22 1 0
BITMAP
0006
000e
001c
0030
0000
00f0
079c
060e
1c06
1807
3807
3007
7006
6006
600e
e00c
e01c
e018
6038
7060
39e0
0f80
ENDCHAR
STARTCHAR Ocircumflex
ENCODING 212
SWIDTH 722 0
DWIDTH 18 0
BBX 16 22 1 0
BITMAP
0038
0078
00cc
0104
0000
00f0
079c
060e
1c06
1807
3807
3007
7006
6006
600e
e00c
e01c
e018
6038
7060
39e0
0f80
ENDCHAR
STARTCHAR Odoubleacute
ENCODING 213
SWIDTH 722 0
DWIDTH 18 0
BBX 16 24 1 0
BITMAP
0036
0036
0024
006c
0048
0048
0000
00f0
079c
060e
1c06
1807
3807
3007
7006
6006
600e
e00c
e01c
e018
6038
7060
39e0
0f80
ENDCHAR
STARTCHAR Odiaeresis
ENCODING 214
SWIDTH 722 0
DWIDTH 18 0
BBX 16 21 1 0
BITMAP
00c6
00c6
0000
0000
00f0
079c
060e
1c06
1807
3807
3007
7006
6006
600e
e00c
e01c
e018
6038
7060
39e0
0f80
ENDCHAR
STARTCHAR multiply
ENCODING 215
SWIDTH 675 0
DWIDTH 17 0
BBX 12 11 3 1
BITMAP
c030
6060
30c0
1980
0f00
0600
0f00
1980
30c0
6060
c030
ENDCHAR
STARTCHAR Rcaron
ENCODING 216
SWIDTH 611 0
DWIDTH 15 0
BBX 15 22 -1 0
BITMAP
0104
0198
00f0
00e0
0000
0ff0
031c
030c
060e
060e
060c
0c1c
0c38
0fe0
0980
18c0
18c0
1860
3070
3030
3038
fc1e
ENDCHAR
STARTCHAR Uring
ENCODING 217
SWIDTH 722 0
DWIDTH 18 0
BBX 17 23 2 0
BITMAP
00e000
01b000
011000
01b000
00e000
000000
7e1f80
180600
180600
380400
300400
300c00
700c00
600800
601800
601800
c01000
c01000
c03000
c02000
e06000
79c000
3f0000
ENDCHAR
STARTCHAR Uacute
ENCODING 218
SWIDTH 722 0
DWIDTH 18 0
BBX 17 22 2 0
BITMAP
000c00
001c00
003800
006000
000000
7e1f80
180600
180600
380400
300400
300c00
700c00
600800
601800
601800
c01000
c01000
c03000
c02000
e06000
79c000
3f0000
ENDCHAR
STARTCHAR Udoubleacute
ENCODING 219
SWIDTH 722 0
DWIDTH 18 0
BBX 17 24 2 0
BITMAP
006c00
006c00
004800
00d800
009000
009000
000000
7e1f80
180600
180600
380400
300400
300c00
700c00
600800
601800
601800
c01000
c01000
c03000
c02000
e06000
79c000
3f0000
ENDCHAR
STARTCHAR Udiaeresis
ENCODING 220
SWIDTH 722 0
DWIDTH 18 0
BBX 17 21 2 0
BITMAP
031800
031800
000000
000000
7e1f80
180600
180600
380400
300400
300c00
700c00
600800
601800
601800
c01000
c01000
c03000
c02000
e06000
79c000
3f0000
ENDCHAR
STARTCHAR Yacute
ENCODING 221
SWIDTH 556 0
DWIDTH 14 0
BBX 14 22 2 0
BITMAP
0060
00e0
01c0
0300
0000
fc7c
7038
3030
3060
18c0
1980
1b00
0e00
0c00
0c00
1800
1800
1800
3000
3000
3000
fc00
ENDCHAR
STARTCHAR Tcedilla
ENCODING 222
SWIDTH 556 0
DWIDTH 14 0
BBX 14 22 2 -5
BITMAP
fffc
c30c
8308
8708
0600
0600
0e00
0c00
0c00
0c00
1c00
1800
1800
3800
3000
3000
fc00
0200
0380
00c0
08c0
0780
ENDCHAR
STARTCHAR ssharp
ENCODING 223
SWIDTH 500 0
DWIDTH 13 0
BBX 16 22 -4 -5
BITMAP
003c
0066
00c3
00c3
0183
0186
019c
03b8
031c
0306
0706
0606
0606
060c
04cc
0cd8
0c70
0c00
0800
9800
d000
e000
ENDCHAR
STARTCHAR racute
ENCODING 224
SWIDTH 389 0
DWIDTH 9 0
BBX 10 17 0 0
BITMAP
00c0
01c0
0380
0600
0400
0000
3980
1b80
1d80
3800
3000
7000
6000
6000
c000
c000
c000
ENDCHAR
STARTCHAR aacute
ENCODING 225
SWIDTH 500 0
DWIDTH 13 0
BBX 12 17 0 0
BITMAP
0030
0070
00e0
0180
0100
0000
03b0
0e70
1860
3060
60c0
60c0
c0c0
c380
c580
f9a0
71c0
ENDCHAR
STARTCHAR acircumflex
ENCODING 226
SWIDTH 500 0
DWIDTH 13 0
BBX 12 16 0 0
BITMAP
01c0
03c0
0660
0820
0000
03b0
0e70
1860
3060
60c0
60c0
c0c0
c380
c580
f9a0
71c0
ENDCHAR
STARTCHAR abreve
ENCODING 227
SWIDTH 500 0
DWIDTH 13 0
BBX 13 16 0 0
BITMAP
0208
0318
03f0
01e0
0000
03b0
0e70
1860
3060
60c0
60c0
c0c0
c380
c580
f9a0
71c0
ENDCHAR
STARTCHAR adiaeresis
ENCODING 228
SWIDTH 500 0
DWIDTH 13 0
BBX 12 15 0 0
BITMAP
0660
0660
0000
0000
03b0
0e70
1860
3060
60c0
60c0
c0c0
c380
c580
f9a0
71c0
ENDCHAR
STARTCHAR lacute
ENCODING 229
SWIDTH 278 0
DWIDTH 6 0
BBX 9 23 0 0
BITMAP
0180
0380
0700
0c00
0800
0000
1c00
0c00
0c00
1800
1800
1800
3000
3000
3000
7000
6000
6000
6000
c000
c800
d000
6000
ENDCHAR
STARTCHAR cacute
ENCODING 230
SWIDTH 444 0
DWIDTH 11 0
BBX 11 17 0 0
BITMAP
0060
00e0
01c0
0300
0200
0000
0780
1cc0
30c0
7000
6000
e000
c000
c000
c180
e700
7c00
ENDCHAR
STARTCHAR ccedilla
ENCODING 231
SWIDTH 444 0
DWIDTH 11 0
BBX 10 16 0 -5
BITMAP
0780
1cc0
30c0
7000
6000
e000
c000
c000
c180
e700
7c00
2000
3800
0c00
8c00
7800
ENDCHAR
STARTCHAR ccaron
ENCODING 232
SWIDTH 444 0
DWIDTH 11 0
BBX 11 16 0 0
BITMAP
0820
0cc0
0780
0700
0000
0780
1cc0
30c0
7000
6000
e000
c000
c000
c180
e700
7c00
ENDCHAR
STARTCHAR eacute
ENCODING 233
SWIDTH 444 0
DWIDTH 10 0
BBX 10 17 0 0
BITMAP
00c0
01c0
0380
0600
0400
0000
0700
1d80
3180
6300
6600
f800
c000
c100
c300
e600
7c00
ENDCHAR
STARTCHAR eogonek
ENCODING 234
SWIDTH 444 0
DWIDTH 10 0
BBX 9 16 0 -5
BITMAP
0700
1d80
3180
6300
6600
f800
c000
c100
c300
e600
7c00
1800
3000
3000
3f00
1c00
ENDCHAR
STARTCHAR ediaeresis
ENCODING 235
SWIDTH 444 0
DWIDTH 10 0
BBX 9 15 0 0
BITMAP
1980
1980
0000
0000
0700
1d80
3180
6300
6600
f800
c000
c100
c300
e600
7c00
ENDCHAR
STARTCHAR ecaron
ENCODING 236
SWIDTH 444 0
DWIDTH 10 0
BBX 11 16 0 0
BITMAP
0820
0cc0
0780
0700
0000
0700
1d80
3180
6300
6600
f800
c000
c100
c300
e600
7c00
ENDCHAR
STARTCHAR iacute
ENCODING 237
SWIDTH 278 0
DWIDTH 7 0
BBX 8 17 0 0
BITMAP
03
07
0e
18
10
00
38
18
18
30
30
70
60
60
c4
c8
70
ENDCHAR
STARTCHAR icircumflex
ENCODING 238
SWIDTH 278 0
DWIDTH 7 0
BBX 7 16 0 0
BITMAP
1c
3c
66
82
00
38
18
18
30
30
70
60
60
c4
c8
70
ENDCHAR
STARTCHAR dcaron
ENCODING 239
SWIDTH 720 0
DWIDTH 18 0
BBX 18 19 0 0
BITMAP
0001c0
0001c0
0038c0
001880
001980
003b00
003000
003000
03b000
0e6000
186000
306000
604000
60c000
c0c000
c3c000
c58000
f9a000
71c000
ENDCHAR
STARTCHAR dstroke
ENCODING 240
SWIDTH 640 0
DWIDTH 16 0
BBX 16 17 0 0
BITMAP
0038
0018
0018
01ff
0030
0030
03b0
0e60
1860
3060
6040
60c0
c0c0
c3c0
c580
f9a0
71c0
ENDCHAR
STARTCHAR nacute
ENCODING 241
SWIDTH 500 0
DWIDTH 13 0
BBX 11 17 0 0
BITMAP
0060
00e0
01c0
0300
0200
0000
38c0
1be0
1c60
3860
3060
70c0
60c0
60c0
c180
c1a0
c1c0
ENDCHAR
STARTCHAR ncaron
ENCODING 242
SWIDTH 500 0
DWIDTH 13 0
BBX 11 16 0 0
BITMAP
0820
0cc0
0780
0700
0000
38c0
1be0
1c60
3860
3060
70c0
60c0
60c0
c180
c1a0
c1c0
ENDCHAR
STARTCHAR oacute
ENCODING 243
SWIDTH 500 0
DWIDTH 12 0
BBX 11 17 0 0
BITMAP
0060
00e0
01c0
0300
0200
0000
0780
1cc0
3860
7060
6060
e0e0
c0c0
c1c0
c180
6700
3c00
ENDCHAR
STARTCHAR ocircumflex
ENCODING 244
SWIDTH 500 0
DWIDTH 12 0
BBX 11 16 0 0
BITMAP
0380
0780
0cc0
1040
0000
0780
1cc0
3860
7060
6060
e0e0
c0c0
c1c0
c180
6700
3c00
ENDCHAR
STARTCHAR odoubleacute
ENCODING 245
SWIDTH 500 0
DWIDTH 12 0
BBX 11 18 0 0
BITMAP
0360
0360
0240
06c0
0480
0480
0000
0780
1cc0
3860
7060
6060
e0e0
c0c0
c1c0
c180
6700
3c00
ENDCHAR
STARTCHAR odiaeresis
ENCODING 246
SWIDTH 500 0
DWIDTH 12 0
BBX 11 15 0 0
BITMAP
0cc0
0cc0
0000
0000
0780
1cc0
3860
7060
6060
e0e0
c0c0
c1c0
c180
6700
3c00
ENDCHAR
STARTCHAR division
ENCODING 247
SWIDTH 675 0
DWIDTH 17 0
BBX 12 12 3 1
BITMAP
0600
0600
0600
0000
0000
fff0
fff0
0000
0000
0600
0600
0600
ENDCHAR
STARTCHAR rcaron
ENCODING 248
SWIDTH 389 0
DWIDTH 9 0
BBX 10 16 0 0
BITMAP
1040
1980
0f00
0e00
0000
3980
1b80
1d80
3800
3000
7000
6000
6000
c000
c000
c000
ENDCHAR
STARTCHAR uring
ENCODING 249
SWIDTH 500 0
DWIDTH 12 0
BBX 11 17 0 0
BITMAP
0700
0d80
0880
0d80
0700
0000
7860
3060
3060
60c0
60c0
61c0
c180
c380
c700
fb00
6380
ENDCHAR
STARTCHAR uacute
ENCODING 250
SWIDTH 500 0
DWIDTH 12 0
BBX 11 17 0 0
BITMAP
0060
00e0
01c0
0300
0200
0000
7860
3060
3060
60c0
60c0
61c0
c180
c380
c700
fb00
6380
ENDCHAR
STARTCHAR udoubleacute
ENCODING 251
SWIDTH 500 0
DWIDTH 12 0
BBX 11 18 0 0
BITMAP
0360
0360
0240
06c0
0480
0480
0000
7860
3060
3060
60c0
60c0
61c0
c180
c380
c700
fb00
6380
ENDCHAR
STARTCHAR udiaeresis
ENCODING 252
SWIDTH 500 0
DWIDTH 12 0
BBX 11 15 0 0
BITMAP
0cc0
0cc0
0000
0000
7860
3060
3060
60c0
60c0
61c0
c180
c380
c700
fb00
6380
ENDCHAR
STARTCHAR yacute
ENCODING 253
SWIDTH 444 0
DWIDTH 11 0
BBX 12 22 -1 -5
BITMAP
0030
0070
00e0
0180
0100
0000
7870
1830
1830
1860
0c40
0cc0
0c80
0d80
0700
0600
0600
0c00
0800
1800
d000
e000
ENDCHAR
STARTCHAR tcedilla
ENCODING 254
SWIDTH 278 0
DWIDTH 7 0
BBX 7 19 0 -5
BITMAP
08
18
38
7e
30
30
70
60
60
60
e0
c4
d8
60
10
1c
06
46
3c
ENDCHAR
STARTCHAR abovedot
ENCODING 255
SWIDTH 333 0
DWIDTH 8 0
BBX 2 2 4 13
BITMAP
c0
c0
ENDCHAR
ENDFONT
